<!--?xml version="1.0" encoding="utf-8"?-->
<!-- Generator: Adobe Illustrator 15.1.0, SVG Export Plug-In . SVG Version: 6.00 Build 0)  -->

<svg version="1.1" id="_x32_" xmlns="http://www.w3.org/2000/svg" xmlns:xlink="http://www.w3.org/1999/xlink" x="0px" y="0px" width="512px" height="512px" viewBox="0 0 512 512" style="width: 256px; height: 256px; opacity: 1;" xml:space="preserve">
<style type="text/css">

	.st0{fill:#4B4B4B;}

</style>
<g>
	<path class="st0" d="M509.844,306.766c-2.188-4.969-5.297-8.953-8.672-12.719c-5.078-5.609-10.984-10.641-16.203-15.031
		c-2.625-2.188-5.047-4.203-7.047-5.938c-1.984-1.719-3.578-3.203-4.297-4.016l-0.469-0.5l0.469,0.531
		c-3.016-3.344-6.844-6.125-11.094-8.141c-6.438-3.031-13.641-4.547-22.484-5.484c-8.859-0.938-19.453-1.219-32.875-1.219h-59.641
		L230.156,144.797l-0.031,0.031c-2.563-2.578-5.344-4.641-8.328-6.266c-1.609-0.875-3.266-1.609-5.078-2.203
		c-1.813-0.578-3.781-1.078-6.344-1.094l0,0c-0.031,0-0.094,0.016-0.125,0.016l-43.125,0.172c-1.688,0-3.625,0.297-5.594,1.109
		c-2.938,1.188-5.625,3.734-6.938,6.359c-1.375,2.641-1.719,5.109-1.719,7.172c0.016,2.5,0.5,4.578,1.156,6.531
		c0.688,1.938,1.563,3.75,2.625,5.516l0.063,0.078l57.406,92.016h-75.719l-59.313-72.578l-0.031,0.031
		c-2.375-2.969-5.016-5.078-7.938-6.75c-3.109-1.656-6.375-3.016-11-3.094H27.344c-2.156-0.016-4.469,0.438-6.563,1.422
		c-3.219,1.453-5.75,4.063-7.156,6.797c-1.469,2.734-2,5.547-2,8.188c0,1.969,0.328,3.844,0.844,5.656l-0.016,0.016l16.234,60.328
		h-3.766c-3.906-0.031-7.828,0.906-11.188,2.672c-5.109,2.672-8.672,7.016-10.75,11.5C0.875,272.953,0,277.734,0,282.531
		c0,5.438,1.141,10.953,3.5,16.188c2.344,5.234,5.969,10.219,11.063,14.094c1.656,1.266,3.313,2.25,5.313,3.391
		c7.313,4.109,19.25,9.625,33.906,15.938c21.906,9.438,49.422,20.391,73.219,29.063c11.906,4.328,22.844,8.094,31.813,10.828
		c4.469,1.375,8.453,2.484,11.938,3.297c3.531,0.781,6.281,1.375,9.703,1.406h225.109c25.859-0.031,50.969-5.766,70.625-15.516
		c9.813-4.906,18.328-10.828,24.813-18.125c6.453-7.219,11-16.328,11-26.5C512,312.891,511.063,309.609,509.844,306.766z
		 M483.313,327.422c-5.578,6.391-16.625,13.234-30.531,17.984c-13.875,4.797-30.531,7.703-47.219,7.688H180.5
		c-0.078,0.016-1.25-0.125-2.844-0.453c-6.203-1.266-18.594-5.125-33.063-10.234c-21.781-7.688-48.875-18.25-71.625-27.797
		c-11.375-4.766-21.656-9.297-29.609-13.031c-3.953-1.859-7.359-3.531-9.906-4.891c-2.531-1.344-4.375-2.5-4.578-2.688
		c-1.563-1.188-2.875-2.906-3.813-4.969c-0.953-2.063-1.438-4.469-1.422-6.5c-0.031-2.438,0.719-4.219,1.047-4.578l0.031-0.063
		l0.203-0.016h34.609l-22.188-82.391h22l0.625,0.328l0.438,0.359l0.094,0.078l0.125,0.172l66.578,81.453H256.75l-74.156-118.844
		l27-0.125c0.875,0.313,3.141,1.75,3.922,2.656l0.25,0.281l124.453,116.031h68.953c17.359,0,29.359,0.594,36.953,2.016
		c3.813,0.703,6.469,1.547,8.25,2.406c1.813,0.891,2.797,1.656,3.781,2.703l0.469,0.531l-0.469-0.5
		c2.906,3.125,6.281,5.938,10.047,9.109c5.578,4.672,11.891,9.891,16.359,14.609c2.234,2.344,3.969,4.547,4.906,6.109
		c0.469,0.797,0.719,1.391,0.844,1.719l0.031,0.141C488.313,319.688,487.047,323.156,483.313,327.422z" style="fill: rgb(75, 75, 75);"></path>
</g>
</svg>
