<!--?xml version="1.0" encoding="utf-8"?-->
<!-- Generator: Adobe Illustrator 15.1.0, SVG Export Plug-In . SVG Version: 6.00 Build 0)  -->

<svg version="1.1" id="_x32_" xmlns="http://www.w3.org/2000/svg" xmlns:xlink="http://www.w3.org/1999/xlink" x="0px" y="0px" width="512px" height="512px" viewBox="0 0 512 512" style="width: 256px; height: 256px; opacity: 1;" xml:space="preserve">
<style type="text/css">

	.st0{fill:#4B4B4B;}

</style>
<g>
	<path class="st0" d="M482.123,289.829c-6.781-7.438-19-9.297-48.859-9.297H331.123L210.81,153.157
		c-2.813-2.953-7.297-5.406-9.953-5.375l-36.531,0.141c-2.672,0.016-2.828,3.328-0.359,7.391l76.234,125.219H102.419l-61.297-82.734
		c-1.906-2.563-5.641-4.656-8.297-4.656H5.076c-2.672,0-3.984,2.75-2.938,6.109l25.188,81.281h-16.25
		c-13.563,0-14.906,22.313-2.703,31.609c12.219,9.297,119.469,52.078,134.391,52.078h289.141c40.734,0,80.094-18.609,80.094-40.906
		C511.998,312.157,488.92,297.266,482.123,289.829z" style="fill: rgb(75, 75, 75);"></path>
</g>
</svg>
