<!--?xml version="1.0" encoding="utf-8"?-->
<!-- Generator: Adobe Illustrator 15.1.0, SVG Export Plug-In . SVG Version: 6.00 Build 0)  -->

<svg version="1.1" id="_x32_" xmlns="http://www.w3.org/2000/svg" xmlns:xlink="http://www.w3.org/1999/xlink" x="0px" y="0px" width="512px" height="512px" viewBox="0 0 512 512" style="width: 32px; height: 32px; opacity: 1;" xml:space="preserve">
<style type="text/css">

	.st0{fill:#4B4B4B;}

</style>
<g>
	<path class="st0" d="M488.063,283.172l-178.016-83.078V68.938C310.047,37.391,287.547,0,256,0s-54.047,37.391-54.047,68.938
		v131.156L23.938,283.172c-3.922,2.391-7.141,8.109-7.141,12.703v56.703c0,4.609,3.563,7.172,7.922,5.703l188.219-49.188v119.281
		c0,0-30.609,22.438-48.953,34.688c-18.344,12.219-10.203,36.688,4.078,36.688c14.266,0,68.563,0,68.563,0S245.797,512,256,512
		s19.375-12.25,19.375-12.25s54.297,0,68.563,0c14.281,0,22.422-24.469,4.078-36.688c-18.344-12.25-48.953-34.688-48.953-34.688
		V309.094l188.203,49.188c4.375,1.469,7.938-1.094,7.938-5.703v-56.703C495.203,291.281,492,285.563,488.063,283.172z" style="fill: rgb(75, 75, 75);"></path>
</g>
</svg>
