<!--?xml version="1.0" encoding="utf-8"?-->
<!-- Generator: Adobe Illustrator 18.1.1, SVG Export Plug-In . SVG Version: 6.00 Build 0)  -->

<svg version="1.1" id="_x32_" xmlns="http://www.w3.org/2000/svg" xmlns:xlink="http://www.w3.org/1999/xlink" x="0px" y="0px" viewBox="0 0 512 512" style="width: 32px; height: 32px; opacity: 1;" xml:space="preserve">
<style type="text/css">
	.st0{fill:#4B4B4B;}
</style>
<g>
	<path class="st0" d="M147.504,168.1v70.937c0,8.014,6.497,14.511,14.52,14.511h187.961c8.014,0,14.511-6.497,14.511-14.511V168.1
		c0-8.014-6.497-14.511-14.511-14.511H162.024C154.001,153.589,147.504,160.086,147.504,168.1z" style="fill: rgb(75, 75, 75);"></path>
	<path class="st0" d="M256,431.532c-11.68,0-22.896-1.019-33.581-2.882l-39.75,72.631C205.91,508.225,230.508,512,256,512
		c25.491,0,50.089-3.775,73.322-10.719l-39.75-72.631C278.896,430.513,267.68,431.532,256,431.532z" style="fill: rgb(75, 75, 75);"></path>
	<path class="st0" d="M304.699,132.858c1.72,0,3.11-1.381,3.11-3.101v-19.382c0-1.719-1.39-3.118-3.11-3.118h-97.398
		c-1.719,0-3.11,1.399-3.11,3.118v19.382c0,1.72,1.391,3.101,3.11,3.101H304.699z" style="fill: rgb(75, 75, 75);"></path>
	<path class="st0" d="M256,0C114.614,0,0,114.614,0,256c0,103.558,61.532,192.698,149.998,233.011l38.266-69.892
		c-44.452-17.646-73.061-52.01-73.061-89.375V146.889c0-42.058,33.513-76.196,140.796-76.196
		c107.274,0,140.796,34.138,140.796,76.196v182.854c0,37.356-28.609,71.73-73.061,89.375l38.267,69.892
		C450.467,448.698,512,359.558,512,256C512,114.614,397.386,0,256,0z" style="fill: rgb(75, 75, 75);"></path>
	<path class="st0" d="M180.411,344.979c12.463,0,22.559-10.095,22.559-22.542c0-12.463-10.096-22.558-22.559-22.558
		c-12.446,0-22.55,10.095-22.55,22.558C157.86,334.884,167.964,344.979,180.411,344.979z" style="fill: rgb(75, 75, 75);"></path>
	<path class="st0" d="M331.588,299.879c-12.463,0-22.558,10.095-22.558,22.558c0,12.447,10.095,22.542,22.558,22.542
		c12.447,0,22.55-10.095,22.55-22.542C354.139,309.974,344.035,299.879,331.588,299.879z" style="fill: rgb(75, 75, 75);"></path>
</g>
</svg>
