<!--?xml version="1.0" encoding="utf-8"?-->
<!-- Generator: Adobe Illustrator 15.1.0, SVG Export Plug-In . SVG Version: 6.00 Build 0)  -->

<svg version="1.1" id="_x32_" xmlns="http://www.w3.org/2000/svg" xmlns:xlink="http://www.w3.org/1999/xlink" x="0px" y="0px" width="512px" height="512px" viewBox="0 0 512 512" style="width: 32px; height: 32px; opacity: 1;" xml:space="preserve">
<style type="text/css">

	.st0{fill:#4B4B4B;}

</style>
<g>
	<rect x="86.594" class="st0" width="71.906" height="74.797" style="fill: rgb(75, 75, 75);"></rect>
	<path class="st0" d="M158.5,92.063H86.594c0,0,0,14.375,0,31.625c0,37.391-51.781,51.766-51.781,117.938
		c0,31.625,0,245.922,0,245.922c0,13.516,10.953,24.453,24.453,24.453h126.547c13.516,0,24.453-10.938,24.453-24.453
		c0,0,0-214.297,0-245.922c0-66.172-51.766-80.547-51.766-117.938C158.5,106.438,158.5,92.063,158.5,92.063z M170.016,238.75
		v189.828H75.078V238.75H170.016z" style="fill: rgb(75, 75, 75);"></path>
	<path class="st0" d="M477.188,306.563c0-13.688-3.313-25.578-6.234-36.063c-0.828-2.938-1.641-5.875-2.359-8.813
		c-6-24.531-11.203-40.125-16.234-55.219c-1.484-4.469-2.922-8.781-4.344-13.219h-25.078c6.938,22.875,13.922,39.5,22.406,74.125
		c3.094,12.703,7.906,25.281,7.906,39.188c0,55.563-45.063,100.625-100.641,100.625s-100.641-45.063-100.641-100.625
		c0-13.906,4.813-26.484,7.906-39.188c8.484-34.625,15.469-51.25,22.406-74.125h-25.078c-1.422,4.438-2.859,8.766-4.344,13.219
		c-5.031,15.094-10.234,30.688-16.234,55.219c-0.719,2.938-1.547,5.875-2.359,8.813c-2.922,10.484-6.234,22.375-6.234,36.063
		c0,64.141,48.734,117.094,111.109,123.844v54.656h-34.922V512H401v-26.938h-34.922v-54.656
		C428.453,423.656,477.188,370.703,477.188,306.563z" style="fill: rgb(75, 75, 75);"></path>
	<path class="st0" d="M274.625,281.75c-2.422,8.656-4.703,16.844-4.703,24.813c0,45.594,37.094,82.672,82.688,82.672
		s82.672-37.078,82.672-82.672c0-7.969-2.266-16.156-4.688-24.813c-0.938-3.375-1.875-6.734-2.703-10.094
		c-1.094-4.5-2.172-8.656-3.219-12.563H280.547c-1.063,3.906-2.125,8.063-3.219,12.547
		C276.5,275.016,275.563,278.375,274.625,281.75z M319.125,285.266c9.563,0,17.328,7.766,17.328,17.328
		c0,9.578-7.766,17.344-17.328,17.344c-9.578,0-17.344-7.766-17.344-17.344C301.781,293.031,309.547,285.266,319.125,285.266z" style="fill: rgb(75, 75, 75);"></path>
</g>
</svg>
